<svg width="256" height="256" viewBox="0 0 256 256" fill="none" xmlns="http://www.w3.org/2000/svg">
<g filter="url(#filter0_b_17_4)">
<rect width="256" height="256" rx="50" fill="#CCA1A1"/>
</g>
<g filter="url(#filter1_b_17_4)">
<rect width="256" height="256" rx="50" fill="url(#paint0_linear_17_4)"/>
<rect x="0.5" y="0.5" width="255" height="255" rx="49.5" stroke="url(#paint1_linear_17_4)"/>
</g>
<g style="mix-blend-mode:overlay">
<path d="M119.239 77H116.068C115.881 76.0881 115.553 75.2869 115.084 74.5966C114.624 73.9062 114.061 73.3267 113.396 72.858C112.74 72.3807 112.011 72.0227 111.21 71.7841C110.409 71.5455 109.574 71.4261 108.705 71.4261C107.119 71.4261 105.683 71.8267 104.396 72.6278C103.118 73.429 102.099 74.6094 101.341 76.169C100.591 77.7287 100.216 79.642 100.216 81.9091C100.216 84.1761 100.591 86.0895 101.341 87.6491C102.099 89.2088 103.118 90.3892 104.396 91.1903C105.683 91.9915 107.119 92.392 108.705 92.392C109.574 92.392 110.409 92.2727 111.21 92.0341C112.011 91.7955 112.74 91.4418 113.396 90.973C114.061 90.4957 114.624 89.9119 115.084 89.2216C115.553 88.5227 115.881 87.7216 116.068 86.8182H119.239C119 88.1562 118.565 89.3537 117.935 90.4105C117.304 91.4673 116.52 92.3665 115.582 93.108C114.645 93.8409 113.592 94.3991 112.425 94.7827C111.266 95.1662 110.026 95.358 108.705 95.358C106.472 95.358 104.486 94.8125 102.747 93.7216C101.009 92.6307 99.6406 91.0795 98.6435 89.0682C97.6463 87.0568 97.1477 84.6705 97.1477 81.9091C97.1477 79.1477 97.6463 76.7614 98.6435 74.75C99.6406 72.7386 101.009 71.1875 102.747 70.0966C104.486 69.0057 106.472 68.4602 108.705 68.4602C110.026 68.4602 111.266 68.652 112.425 69.0355C113.592 69.419 114.645 69.9815 115.582 70.723C116.52 71.456 117.304 72.3509 117.935 73.4077C118.565 74.456 119 75.6534 119.239 77ZM124.362 95V68.8182H127.532V92.1875H139.703V95H124.362ZM147.782 68.8182V95H144.612V68.8182H147.782Z" fill="black"/>
</g>
<g style="mix-blend-mode:overlay">
<path opacity="0.8" fill-rule="evenodd" clip-rule="evenodd" d="M67.0625 202.047V68.8281C67.0625 59.0125 75.1813 51.0625 85.1844 51.0625H184.878C194.881 51.0625 203 59.0125 203 68.8281V202.047C203 211.862 194.881 219.812 184.878 219.812H85.1844C75.1813 219.812 67.0625 211.862 67.0625 202.047Z" fill="black"/>
<path fill-rule="evenodd" clip-rule="evenodd" d="M53 60.4375V191.688C53 197.904 55.4693 203.865 59.8647 208.26C64.2601 212.656 70.2215 215.125 76.4375 215.125H170.188C176.404 215.125 182.365 212.656 186.76 208.26C191.156 203.865 193.625 197.904 193.625 191.688V60.4375C193.625 57.3596 193.019 54.3119 191.841 51.4684C190.663 48.6248 188.937 46.0411 186.76 43.8647C184.584 41.6883 182 39.9619 179.157 38.7841C176.313 37.6062 173.265 37 170.188 37H76.4375C70.2215 37 64.2601 39.4693 59.8647 43.8647C55.4693 48.2601 53 54.2215 53 60.4375V60.4375ZM76.4375 205.75C72.7079 205.75 69.131 204.268 66.4938 201.631C63.8566 198.994 62.375 195.417 62.375 191.688V60.4375C62.375 56.7079 63.8566 53.131 66.4938 50.4938C69.131 47.8566 72.7079 46.375 76.4375 46.375H170.188C173.917 46.375 177.494 47.8566 180.131 50.4938C182.768 53.131 184.25 56.7079 184.25 60.4375V191.688C184.25 195.417 182.768 198.994 180.131 201.631C177.494 204.268 173.917 205.75 170.188 205.75H76.4375Z" fill="black"/>
<path d="M76.4375 102.625V65.125C76.4375 63.8818 76.9314 62.6895 77.8104 61.8104C78.6895 60.9314 79.8818 60.4375 81.125 60.4375H165.5C166.743 60.4375 167.935 60.9314 168.815 61.8104C169.694 62.6895 170.188 63.8818 170.188 65.125V102.625C170.188 103.868 169.694 105.06 168.815 105.94C167.935 106.819 166.743 107.312 165.5 107.312H81.125C79.8818 107.312 78.6895 106.819 77.8104 105.94C76.9314 105.06 76.4375 103.868 76.4375 102.625ZM142.062 179.5V133.563C142.062 131.573 142.853 129.666 144.259 128.259C145.666 126.853 147.573 126.063 149.563 126.062H162.687C164.677 126.063 166.584 126.853 167.991 128.259C169.397 129.666 170.188 131.573 170.188 133.563V179.5C170.188 181.489 169.397 183.397 167.991 184.803C166.584 186.21 164.677 187 162.687 187H149.563C147.573 187 145.666 186.21 144.259 184.803C142.853 183.397 142.062 181.489 142.062 179.5V179.5ZM76.4375 144.812V130.75C76.4375 129.507 76.9314 128.315 77.8104 127.435C78.6895 126.556 79.8818 126.062 81.125 126.062H95.1875C96.4307 126.062 97.623 126.556 98.5021 127.435C99.3811 128.315 99.875 129.507 99.875 130.75V144.812C99.875 146.056 99.3811 147.248 98.5021 148.127C97.623 149.006 96.4307 149.5 95.1875 149.5H81.125C79.8818 149.5 78.6895 149.006 77.8104 148.127C76.9314 147.248 76.4375 146.056 76.4375 144.812ZM109.25 144.812V130.75C109.25 129.507 109.744 128.315 110.623 127.435C111.502 126.556 112.694 126.062 113.938 126.062H128C129.243 126.062 130.435 126.556 131.315 127.435C132.194 128.315 132.688 129.507 132.688 130.75V144.812C132.688 146.056 132.194 147.248 131.315 148.127C130.435 149.006 129.243 149.5 128 149.5H113.938C112.694 149.5 111.502 149.006 110.623 148.127C109.744 147.248 109.25 146.056 109.25 144.812ZM76.4375 182.312V168.25C76.4375 167.007 76.9314 165.815 77.8104 164.935C78.6895 164.056 79.8818 163.562 81.125 163.562H95.1875C96.4307 163.562 97.623 164.056 98.5021 164.935C99.3811 165.815 99.875 167.007 99.875 168.25V182.312C99.875 183.556 99.3811 184.748 98.5021 185.627C97.623 186.506 96.4307 187 95.1875 187H81.125C79.8818 187 78.6895 186.506 77.8104 185.627C76.9314 184.748 76.4375 183.556 76.4375 182.312ZM109.25 182.312V168.25C109.25 167.007 109.744 165.815 110.623 164.935C111.502 164.056 112.694 163.562 113.938 163.562H128C129.243 163.562 130.435 164.056 131.315 164.935C132.194 165.815 132.688 167.007 132.688 168.25V182.312C132.688 183.556 132.194 184.748 131.315 185.627C130.435 186.506 129.243 187 128 187H113.938C112.694 187 111.502 186.506 110.623 185.627C109.744 184.748 109.25 183.556 109.25 182.312Z" fill="black"/>
</g>
<defs>
<filter id="filter0_b_17_4" x="-40" y="-40" width="336" height="336" filterUnits="userSpaceOnUse" color-interpolation-filters="sRGB">
<feFlood flood-opacity="0" result="BackgroundImageFix"/>
<feGaussianBlur in="BackgroundImage" stdDeviation="20"/>
<feComposite in2="SourceAlpha" operator="in" result="effect1_backgroundBlur_17_4"/>
<feBlend mode="normal" in="SourceGraphic" in2="effect1_backgroundBlur_17_4" result="shape"/>
</filter>
<filter id="filter1_b_17_4" x="-40" y="-40" width="336" height="336" filterUnits="userSpaceOnUse" color-interpolation-filters="sRGB">
<feFlood flood-opacity="0" result="BackgroundImageFix"/>
<feGaussianBlur in="BackgroundImage" stdDeviation="20"/>
<feComposite in2="SourceAlpha" operator="in" result="effect1_backgroundBlur_17_4"/>
<feBlend mode="normal" in="SourceGraphic" in2="effect1_backgroundBlur_17_4" result="shape"/>
</filter>
<linearGradient id="paint0_linear_17_4" x1="47.2" y1="0.000102105" x2="200.945" y2="14.4568" gradientUnits="userSpaceOnUse">
<stop stop-color="white" stop-opacity="0.4"/>
<stop offset="1" stop-color="white" stop-opacity="0.1"/>
</linearGradient>
<linearGradient id="paint1_linear_17_4" x1="28.8" y1="23.8933" x2="248.956" y2="54.1416" gradientUnits="userSpaceOnUse">
<stop stop-color="white" stop-opacity="0.5"/>
<stop offset="0.326603" stop-color="#BE8686" stop-opacity="0.5"/>
<stop offset="0.647788" stop-color="#AA6363" stop-opacity="0.5"/>
<stop offset="1" stop-color="#AC6767" stop-opacity="0.5"/>
</linearGradient>
</defs>
</svg>
